REM MD5 5f8f7d88520474b45d503eba7d1e232a
FILE "Euro Demo 30 (France).bin" BINARY
  TRACK 01 MODE2/2352
    INDEX 01 00:00:00
  TRACK 02 AUDIO
    INDEX 00 33:43:62
    INDEX 01 33:45:62
  TRACK 03 AUDIO
    INDEX 00 37:10:30
    INDEX 01 37:12:30
  TRACK 04 AUDIO
    INDEX 00 39:41:23
    INDEX 01 39:43:23
REM LEADOUT 42:44:55
